<?xml version="1.0" standalone="no"?>
<!DOCTYPE svg PUBLIC "-//W3C//DTD SVG 20010904//EN"
 "http://www.w3.org/TR/2001/REC-SVG-20010904/DTD/svg10.dtd">
<svg version="1.0" xmlns="http://www.w3.org/2000/svg"
 width="512.000000pt" height="512.000000pt" viewBox="0 0 512.000000 512.000000"
 preserveAspectRatio="xMidYMid meet">

<g transform="translate(0.000000,512.000000) scale(0.100000,-0.100000)"
fill="#000000" stroke="none">
<path d="M2505 4935 l-25 -24 0 -266 0 -266 25 -24 c15 -16 36 -25 55 -25 19
0 40 9 55 25 l25 24 0 266 0 266 -25 24 c-15 16 -36 25 -55 25 -19 0 -40 -9
-55 -25z"/>
<path d="M865 4255 c-16 -16 -25 -35 -25 -57 0 -29 21 -53 188 -220 173 -173
190 -188 223 -188 46 0 79 33 79 80 0 31 -18 52 -188 222 -167 167 -191 188
-220 188 -22 0 -41 -9 -57 -25z"/>
<path d="M3978 4092 c-173 -173 -188 -190 -188 -223 0 -46 33 -79 80 -79 31 0
52 18 222 188 167 167 188 191 188 220 0 44 -38 82 -82 82 -29 0 -53 -21 -220
-188z"/>
<path d="M2364 3755 c-454 -80 -821 -400 -959 -836 -82 -262 -69 -566 36 -821
90 -220 255 -417 459 -552 178 -117 379 -182 600 -193 267 -12 503 52 723 197
359 237 563 636 544 1064 -12 268 -99 498 -272 713 -165 206 -390 346 -665
413 -112 28 -350 35 -466 15z m457 -178 c369 -96 656 -382 756 -753 24 -88 27
-117 27 -264 0 -147 -3 -176 -27 -265 -15 -55 -34 -105 -43 -112 -26 -19 -163
-52 -268 -64 -168 -20 -375 15 -543 91 -171 78 -360 247 -457 408 -55 93 -109
227 -132 334 -25 110 -23 319 4 434 34 149 39 158 113 179 129 36 201 45 339
41 102 -3 158 -10 231 -29z"/>
<path d="M185 2615 c-16 -15 -25 -36 -25 -55 0 -19 9 -40 25 -55 l24 -25 266
0 266 0 24 25 c33 32 33 78 0 110 l-24 25 -266 0 -266 0 -24 -25z"/>
<path d="M4355 2615 c-16 -15 -25 -36 -25 -55 0 -19 9 -40 25 -55 l24 -25 266
0 266 0 24 25 c16 15 25 36 25 55 0 19 -9 40 -25 55 l-24 25 -266 0 -266 0
-24 -25z"/>
<path d="M1028 1142 c-167 -167 -188 -191 -188 -220 0 -22 9 -41 25 -57 16
-16 35 -25 57 -25 29 0 53 21 220 188 173 173 188 190 188 223 0 46 -33 79
-80 79 -31 0 -52 -18 -222 -188z"/>
<path d="M3812 1307 c-14 -15 -22 -36 -22 -57 0 -31 18 -52 188 -222 167 -167
191 -188 220 -188 44 0 82 38 82 82 0 29 -21 53 -188 220 -173 173 -190 188
-223 188 -24 0 -42 -7 -57 -23z"/>
<path d="M2505 765 l-25 -24 0 -266 0 -266 25 -24 c32 -33 78 -33 110 0 l25
24 0 266 0 266 -25 24 c-15 16 -36 25 -55 25 -19 0 -40 -9 -55 -25z"/>
</g>
</svg>
